Coordinates
version=1
nRows=5
nColumns=40
inDegrees=yes

Units are S.I. units (second, meters, Newtons, ...)
If the header above contains a line with 'inDegrees', this indicates whether rotational values are in degrees (yes) or radians (no).

endheader
time	pelvis_tilt	pelvis_list	pelvis_rotation	pelvis_tx	pelvis_ty	pelvis_tz	hip_flexion_r	hip_adduction_r	hip_rotation_r	knee_angle_r	knee_angle_r_beta	ankle_angle_r	subtalar_angle_r	mtp_angle_r	hip_flexion_l	hip_adduction_l	hip_rotation_l	knee_angle_l	knee_angle_l_beta	ankle_angle_l	subtalar_angle_l	mtp_angle_l	lumbar_extension	lumbar_bending	lumbar_rotation	arm_flex_r	arm_add_r	arm_rot_r	elbow_flex_r	pro_sup_r	wrist_flex_r	wrist_dev_r	arm_flex_l	arm_add_l	arm_rot_l	elbow_flex_l	pro_sup_l	wrist_flex_l	wrist_dev_l
      5.25000000	    -14.52246484	     -1.05499439	      2.38959054	     -0.35812565	      0.86755852	     -0.78292841	     54.78366134	      0.13986957	     -8.97821009	     75.94093938	      1.32541943	     27.04975769	      0.00000000	      0.00000000	     35.83486247	    -10.72504556	     -4.71240410	    108.12024065	      1.88705419	    -28.67569970	      0.00000000	      0.00000000	     -4.59878496	      8.26449827	      7.09372692	     89.96386882	    -17.51075157	     15.33599427	     46.46282627	     79.19080584	      0.00000000	      0.00000000	     89.96200123	     -3.75631827	     15.79375272	     45.27188425	     81.70175099	      0.00000000	      0.00000000
      5.25500000	    -14.53558949	     -1.02875803	      2.42475530	     -0.35818366	      0.86692306	     -0.78298762	     54.87068138	      0.12443757	     -8.91827790	     76.06764680	      1.32763089	     27.14219092	      0.00000000	      0.00000000	     35.87092266	    -10.66773035	     -4.72524775	    108.20374011	      1.88851153	    -28.61916033	      0.00000000	      0.00000000	     -4.61080457	      8.24029682	      7.07513212	     89.96386032	    -17.51690277	     15.80161179	     46.54744665	     74.78159373	      0.00000000	      0.00000000	     89.96201613	     -3.73213363	     16.26917055	     45.40807004	     77.26243172	      0.00000000	      0.00000000
      5.26000000	    -14.59627156	     -0.93286040	      2.44522297	     -0.35830284	      0.86631713	     -0.78321207	     55.01513633	      0.03209049	     -8.81936487	     76.21097759	      1.33013249	     27.12439347	      0.00000000	      0.00000000	     35.92675446	    -10.53332158	     -4.80264557	    108.27054010	      1.88967741	    -28.61901185	      0.00000000	      0.00000000	     -4.57701907	      8.13728375	      7.05042941	     89.96391309	    -17.55098475	     15.36053152	     46.46069595	     78.92531315	      0.00000000	      0.00000000	     89.96191953	     -3.70173291	     15.75018901	     45.30254501	     81.66845769	      0.00000000	      0.00000000
      5.26500000	    -14.59098718	     -0.93880198	      2.50785299	     -0.35834854	      0.86576456	     -0.78324311	     55.06519119	      0.01504340	     -8.82244596	     76.32574519	      1.33213556	     27.19610526	      0.00000000	      0.00000000	     35.95185927	    -10.50601445	     -4.78493564	    108.36198322	      1.89127339	    -28.55304307	      0.00000000	      0.00000000	     -4.60355649	      8.14677965	      7.03149572	     89.96396014	    -17.56529228	     15.33466072	     46.48088369	     78.84471282	      0.00000000	      0.00000000	     89.96206265	     -3.68714138	     15.82895426	     45.32526744	     81.84590499	      0.00000000	      0.00000000
      5.27000000	    -14.60953210	     -0.99628365	      2.51202241	     -0.35840123	      0.86515746	     -0.78318120	     55.14110080	      0.09799795	     -8.80181560	     76.41156199	      1.33363334	     27.28602866	      0.00000000	      0.00000000	     35.98890445	    -10.59750265	     -4.77954281	    108.44619353	      1.89274314	    -28.57956689	      0.00000000	      0.00000000	     -4.60677363	      8.20986737	      7.04019273	     89.96397267	    -17.58271610	     15.30852161	     46.49064922	     79.05188156	      0.00000000	      0.00000000	     89.96199155	     -3.67117378	     15.81788400	     45.29754027	     81.77022689	      0.00000000	      0.00000000
